# xmcd
#
# Track frame offsets: 
#        150
#        13592
#        24090
#
# Disc length: 458 seconds
#
# Revision: 0
# Processed by: cddbd v1.4PL0 Copyright (c) Steve Scherf et al.
# Submitted via: ExactAudioCopy v0.90b4
#
DISCID=1201c803
DTITLE=even cowgirl gets the blues - Sugartown
DYEAR=1992
DGENRE=Country
TTITLE0=Sugartown
TTITLE1=Ring Of Fire
TTITLE2=Cooking Song
EXTD=
EXTT0=
EXTT1=
EXTT2=
PLAYORDER=
